<svg width="150" height="26" viewBox="0 0 150 26" fill="none" xmlns="http://www.w3.org/2000/svg">
<path d="M6.47727 14.7727L4.79545 25H0.670455L3.57955 7.54545H7.52273L7.02273 10.5114H7.23864C7.78409 9.53409 8.54924 8.75758 9.53409 8.18182C10.5189 7.60606 11.6667 7.31818 12.9773 7.31818C14.1667 7.31818 15.1667 7.57576 15.9773 8.09091C16.7879 8.59848 17.3636 9.3447 17.7045 10.3295C18.0455 11.3068 18.0985 12.4924 17.8636 13.8864L16 25H11.8864L13.625 14.5227C13.822 13.3636 13.6742 12.4545 13.1818 11.7955C12.697 11.1288 11.9167 10.7955 10.8409 10.7955C10.1212 10.7955 9.45833 10.9545 8.85227 11.2727C8.24621 11.5833 7.73485 12.0341 7.31818 12.625C6.90909 13.2159 6.62879 13.9318 6.47727 14.7727ZM26.625 25.3068C25.2538 25.3068 24.0833 24.9545 23.1136 24.25C22.1515 23.5455 21.4659 22.5227 21.0568 21.1818C20.6477 19.8409 20.5985 18.2121 20.9091 16.2955C21.2348 14.3561 21.8295 12.7197 22.6932 11.3864C23.5568 10.0455 24.5871 9.03409 25.7841 8.35227C26.9886 7.66288 28.2614 7.31818 29.6023 7.31818C30.6326 7.31818 31.447 7.49242 32.0455 7.84091C32.6515 8.18182 33.1061 8.5947 33.4091 9.07955C33.7197 9.55682 33.9432 10.0076 34.0795 10.4318H34.25L34.7273 7.54545H38.8636L35.9545 25H31.9091L32.375 22.25H32.125C31.8371 22.6742 31.4545 23.125 30.9773 23.6023C30.5076 24.072 29.9129 24.4735 29.1932 24.8068C28.4811 25.1402 27.625 25.3068 26.625 25.3068ZM28.2727 21.9318C29.1439 21.9318 29.928 21.697 30.625 21.2273C31.3295 20.75 31.9167 20.0871 32.3864 19.2386C32.8561 18.3902 33.1856 17.4015 33.375 16.2727C33.5644 15.1439 33.5644 14.1629 33.375 13.3295C33.1856 12.4962 32.8182 11.8485 32.2727 11.3864C31.7273 10.9242 31.0114 10.6932 30.125 10.6932C29.2159 10.6932 28.4205 10.9318 27.7386 11.4091C27.0568 11.8864 26.4924 12.5455 26.0455 13.3864C25.6061 14.2273 25.2955 15.1894 25.1136 16.2727C24.9394 17.3636 24.9318 18.3371 25.0909 19.1932C25.2576 20.0417 25.6023 20.7121 26.125 21.2045C26.6477 21.6894 27.3636 21.9318 28.2727 21.9318ZM58.8778 7.54545L49.7528 25H45.2074L41.9006 7.54545H46.1278L47.9915 20.5114H48.1733L54.3438 7.54545H58.8778ZM64.6875 25.3068C63.3163 25.3068 62.1458 24.9545 61.1761 24.25C60.214 23.5455 59.5284 22.5227 59.1193 21.1818C58.7102 19.8409 58.661 18.2121 58.9716 16.2955C59.2973 14.3561 59.892 12.7197 60.7557 11.3864C61.6193 10.0455 62.6496 9.03409 63.8466 8.35227C65.0511 7.66288 66.3239 7.31818 67.6648 7.31818C68.6951 7.31818 69.5095 7.49242 70.108 7.84091C70.714 8.18182 71.1686 8.5947 71.4716 9.07955C71.7822 9.55682 72.0057 10.0076 72.142 10.4318H72.3125L72.7898 7.54545H76.9261L74.017 25H69.9716L70.4375 22.25H70.1875C69.8996 22.6742 69.517 23.125 69.0398 23.6023C68.5701 24.072 67.9754 24.4735 67.2557 24.8068C66.5436 25.1402 65.6875 25.3068 64.6875 25.3068ZM66.3352 21.9318C67.2064 21.9318 67.9905 21.697 68.6875 21.2273C69.392 20.75 69.9792 20.0871 70.4489 19.2386C70.9186 18.3902 71.2481 17.4015 71.4375 16.2727C71.6269 15.1439 71.6269 14.1629 71.4375 13.3295C71.2481 12.4962 70.8807 11.8485 70.3352 11.3864C69.7898 10.9242 69.0739 10.6932 68.1875 10.6932C67.2784 10.6932 66.483 10.9318 65.8011 11.4091C65.1193 11.8864 64.5549 12.5455 64.108 13.3864C63.6686 14.2273 63.358 15.1894 63.1761 16.2727C63.0019 17.3636 62.9943 18.3371 63.1534 19.1932C63.3201 20.0417 63.6648 20.7121 64.1875 21.2045C64.7102 21.6894 65.4261 21.9318 66.3352 21.9318ZM86.4176 1.72727L82.554 25H78.4403L82.304 1.72727H86.4176ZM94.7614 1.72727L90.8977 25H86.7841L90.6477 1.72727H94.7614ZM95.1278 25L98.0369 7.54545H102.151L99.2415 25H95.1278ZM100.696 5.04545C100.037 5.04545 99.4915 4.82576 99.0597 4.38636C98.6278 3.94697 98.4384 3.42045 98.4915 2.80682C98.5445 2.19318 98.821 1.66667 99.321 1.22727C99.8286 0.787879 100.408 0.568182 101.06 0.568182C101.719 0.568182 102.26 0.787879 102.685 1.22727C103.116 1.66667 103.306 2.19318 103.253 2.80682C103.207 3.42045 102.931 3.94697 102.423 4.38636C101.923 4.82576 101.348 5.04545 100.696 5.04545ZM115.812 17.6591L117.506 7.54545H121.619L118.71 25H114.722L115.244 21.8977H115.062C114.517 22.875 113.737 23.6742 112.722 24.2955C111.714 24.9167 110.555 25.2273 109.244 25.2273C108.1 25.2273 107.134 24.9735 106.347 24.4659C105.559 23.9508 104.998 23.2045 104.665 22.2273C104.339 21.2424 104.29 20.053 104.517 18.6591L106.381 7.54545H110.494L108.744 18.0227C108.57 19.1288 108.729 20.0076 109.222 20.6591C109.722 21.3106 110.464 21.6364 111.449 21.6364C112.055 21.6364 112.665 21.4886 113.278 21.1932C113.9 20.8977 114.441 20.4583 114.903 19.875C115.366 19.2841 115.669 18.5455 115.812 17.6591ZM122.952 25L125.861 7.54545H129.804L129.304 10.5114H129.52C130.05 9.51136 130.781 8.73106 131.713 8.17045C132.645 7.60227 133.694 7.31818 134.861 7.31818C136.035 7.31818 136.982 7.60606 137.702 8.18182C138.429 8.75 138.876 9.52651 139.043 10.5114H139.224C139.77 9.53409 140.55 8.75758 141.565 8.18182C142.588 7.60606 143.736 7.31818 145.009 7.31818C146.599 7.31818 147.819 7.82576 148.668 8.84091C149.516 9.85606 149.777 11.3371 149.452 13.2841L147.497 25H143.384L145.247 13.9205C145.414 12.8371 145.247 12.0455 144.747 11.5455C144.255 11.0379 143.592 10.7841 142.759 10.7841C141.766 10.7841 140.94 11.0909 140.281 11.7045C139.63 12.3182 139.228 13.1212 139.077 14.1136L137.247 25H133.213L135.099 13.75C135.236 12.8485 135.077 12.1288 134.622 11.5909C134.175 11.053 133.516 10.7841 132.645 10.7841C132.054 10.7841 131.49 10.9356 130.952 11.2386C130.414 11.5417 129.955 11.9659 129.577 12.5114C129.205 13.0492 128.963 13.6742 128.849 14.3864L127.077 25H122.952Z" fill="white"/>
</svg>
